<svg width="1981" height="592" viewBox="0 0 1981 592" fill="none" xmlns="http://www.w3.org/2000/svg">
<path d="M761.274 422.18L-0.000156403 517.221V438.029L761.274 342.988V422.18Z" fill="#5C6BF5"/>
<path d="M562.249 526.481L39.8053 591.464V512.272L562.249 447.288V526.481Z" fill="#8C98FF"/>
<path d="M1886.4 278.785L1363.95 343.768V264.576L1886.4 199.593V278.785Z" fill="#75E3EA"/>
<path d="M1980.31 191.784L1457.86 256.768V177.575L1980.31 112.592V191.784Z" fill="#5C6BF5"/>
<path d="M1134.74 156.105L1840.28 68.4629V141.49L1134.74 229.132V156.105Z" fill="#5C6BF5"/>
<path d="M1319.2 59.9244L1803.39 0V73.0271L1319.2 132.952V59.9244Z" fill="#8C98FF"/>
<path d="M180.194 273.87L664.386 213.945V286.972L180.194 346.897V273.87Z" fill="#75E3EA"/>
<path d="M4.96289 368.564L489.155 308.64V381.667L4.96289 441.591V368.564Z" fill="#5C6BF5"/>
</svg>
