<svg width="21" height="20" viewBox="0 0 21 20" fill="none" xmlns="http://www.w3.org/2000/svg">
<path d="M7.11192 10C7.11192 9.57 7.45785 9.23 7.89535 9.23H14V4.44C14 1.99 11.9753 0 9.49273 0H4.52762C2.03488 0 0 1.99 0 4.45V15.56C0 18.01 2.02471 20 4.51744 20H9.47238C11.9753 20 14 18 14 15.55V10.77H7.89535C7.45785 10.77 7.11192 10.42 7.11192 10Z" fill="#D0D2DA"/>
<path d="M20.55 9.45017L17.63 6.54017C17.33 6.24017 16.84 6.24017 16.54 6.55017C16.24 6.85017 16.24 7.34017 16.54 7.64017L18.14 9.23017H14V10.7702H18.14L16.54 12.3602C16.24 12.6602 16.24 13.1502 16.54 13.4502C16.69 13.6002 16.89 13.6802 17.09 13.6802C17.28 13.6802 17.48 13.6002 17.63 13.4502L20.55 10.5402C20.7 10.4002 20.78 10.2002 20.78 10.0002C20.78 9.79017 20.7 9.60017 20.55 9.45017Z" fill="#D0D2DA"/>
</svg>
