<svg width="34" height="34" viewBox="0 0 34 34" fill="none" xmlns="http://www.w3.org/2000/svg">
<path d="M20.5417 23.7291H13.4583C13.0673 23.7291 12.75 24.0465 12.75 24.4375C12.75 24.8285 13.0673 25.1458 13.4583 25.1458H20.5417C20.9327 25.1458 21.25 24.8285 21.25 24.4375C21.25 24.0465 20.9327 23.7291 20.5417 23.7291Z" fill="#5E72E4"/>
<path fill-rule="evenodd" clip-rule="evenodd" d="M9.20833 9.5625H24.7917C25.1827 9.5625 25.5 9.87983 25.5 10.2708V21.6042C25.5 21.9952 25.1827 22.3125 24.7917 22.3125H9.20833C8.81733 22.3125 8.5 21.9952 8.5 21.6042V10.2708C8.5 9.87983 8.81733 9.5625 9.20833 9.5625ZM9.91667 20.8958H24.0833V10.9792H9.91667V20.8958Z" fill="#5E72E4"/>
</svg>
