<svg width="13" height="12" viewBox="0 0 13 12" fill="none" xmlns="http://www.w3.org/2000/svg">
    <path d="M12.5388 6.58594C12.5388 6.85156 12.4425 7.08594 12.2498 7.28906L11.6638 7.875C11.4659 8.07292 11.2289 8.17187 10.9529 8.17187C10.6716 8.17187 10.4373 8.07292 10.2498 7.875L7.95288 5.58594V11.0859C7.95288 11.3568 7.85392 11.5755 7.65601 11.7422C7.4633 11.9141 7.22892 12 6.95288 12H5.95288C5.67684 12 5.43986 11.9141 5.24194 11.7422C5.04924 11.5755 4.95288 11.3568 4.95288 11.0859V5.58594L2.65601 7.875C2.46851 8.07292 2.23413 8.17187 1.95288 8.17187C1.67163 8.17187 1.43726 8.07292 1.24976 7.875L0.663818 7.28906C0.465902 7.09115 0.366943 6.85677 0.366943 6.58594C0.366943 6.3099 0.465902 6.07292 0.663818 5.875L5.74976 0.789062C5.93205 0.596353 6.16642 0.499999 6.45288 0.499999C6.73413 0.499999 6.97111 0.596353 7.16382 0.789062L12.2498 5.875C12.4425 6.07812 12.5388 6.3151 12.5388 6.58594Z" fill="#2DCE89"/>
</svg>
